<?xml version="1.0" encoding="UTF-8"?>
<!DOCTYPE svg PUBLIC "-//W3C//DTD SVG 1.1//EN" "http://www.w3.org/Graphics/SVG/1.1/DTD/svg11.dtd">
<!-- Creator: CorelDRAW X5 -->
<svg xmlns="http://www.w3.org/2000/svg" xml:space="preserve" width="108.458mm" height="83.82mm" style="shape-rendering:geometricPrecision; text-rendering:geometricPrecision; image-rendering:optimizeQuality; fill-rule:evenodd; clip-rule:evenodd"
viewBox="0 0 10846 8382"
 xmlns:xlink="http://www.w3.org/1999/xlink"
 xmlns:svg="http://www.w3.org/2000/svg">
 <defs>
  <style type="text/css">
   <![CDATA[
    .fil0 {fill:black;fill-rule:nonzero}
    .fil2 {fill:#007049;fill-rule:nonzero}
    .fil1 {fill:white;fill-rule:nonzero}
   ]]>
  </style>
 </defs>
 <g id="Layer_x0020_1">
  <metadata id="CorelCorpID_0Corel-Layer"/>
  <path class="fil0" d="M5911 7572c1,-183 -135,-287 -375,-287l-608 0 -3 1077 584 0c282,-1 423,-101 423,-304 0,-140 -87,-235 -229,-246 139,-30 207,-109 208,-240l0 0zm-486 138l0 0 -132 0 0 -191 134 0c70,0 117,30 117,95 0,61 -45,96 -119,96l0 0zm2 418l0 0 -135 0 1 -202 137 0c72,0 119,32 119,100 0,65 -46,101 -121,101l0 0zm-1020 -169l0 0c130,-48 202,-181 202,-305 1,-254 -171,-369 -415,-369l-576 0 -3 1077 370 0 1 -319 93 0 191 319 399 0 -262 -402zm-290 -192l0 0 -131 0 1 -224 133 0c70,0 115,36 115,111 0,72 -45,113 -117,113l0 0zm6730 254l0 0c0,-249 -209,-316 -372,-352 -123,-27 -182,-39 -182,-89 0,-66 83,-71 127,-71 111,0 214,46 302,101l101 -245c-130,-56 -289,-102 -435,-102 -251,0 -448,122 -449,368 -1,202 151,280 318,322 116,29 190,37 190,95 0,58 -57,75 -112,75 -122,0 -238,-54 -310,-116l-121 238c130,85 289,138 448,138 242,0 494,-86 494,-362l0 0zm-9906 -1l0 0c1,-248 -208,-317 -371,-352 -123,-27 -182,-39 -182,-89 0,-66 83,-71 127,-71 111,0 214,46 303,100l100 -245c-130,-56 -288,-101 -435,-101 -251,0 -448,122 -448,368 -1,202 150,280 318,321 115,29 190,38 189,95 0,57 -57,75 -112,75 -114,-1 -225,-42 -310,-116l-121 238c130,85 289,139 448,139 242,0 492,-87 493,-362l0 0zm8162 -52l0 0 -1 393 -373 -1 3 -1077 373 0 -1 394 226 -394 416 0 -352 531 394 546 -447 0 -239 -392zm-738 29l0 0c-68,51 -136,98 -248,98 -151,0 -251,-125 -250,-277 0,-155 89,-284 246,-284 99,0 185,50 254,105l114 -273c-127,-64 -254,-103 -428,-103 -323,0 -569,223 -570,552 -1,348 236,568 577,568 188,0 319,-44 420,-105l-114 -279zm-5599 -469l0 0 -96 369 191 0 -96 -369zm245 831l0 0 -64 -197 -361 0 -68 197 -383 0 392 -1077 486 0 381 1077 -383 1zm-1919 -804l0 0 1 -273 1027 0 -1 273 -321 0 -2 804 -385 0 3 -804 -322 0zm6156 314l0 0c-1,333 -185,512 -530,512 -338,0 -529,-184 -528,-508l2 -590 380 0 -1 572c0,158 42,228 144,228 103,0 152,-63 152,-244l2 -555 380 0 -2 587z"/>
  <path class="fil1" d="M5472 6531c-1804,0 -3266,-1462 -3266,-3266 0,-1804 1462,-3266 3266,-3266 1804,0 3266,1462 3266,3266 0,1804 -1462,3266 -3266,3266z"/>
  <path class="fil2" d="M5472 1382c-162,0 -300,23 -329,28 -16,3 -23,-13 -10,-23l339 -258 338 258c13,10 6,25 -10,23 -29,-5 -167,-28 -328,-28zm-259 1667l0 0c69,53 116,173 259,173 143,0 190,-120 259,-173 -5,-15 -22,-21 -22,-21 0,0 -90,21 -237,21 -147,0 -237,-21 -237,-21 0,0 -17,6 -22,21zm183 -238l0 0c-26,0 -76,20 -87,39 1,10 4,18 11,26 58,9 84,41 151,41 67,0 93,-32 151,-41 7,-8 10,-16 11,-26 -11,-19 -61,-39 -87,-39 -27,0 -36,15 -76,15 -40,0 -49,-15 -76,-15l0 0zm3316 865l0 0c-370,61 -502,-268 -881,-252 23,80 41,162 55,246 313,0 438,292 786,249 -18,89 -40,177 -66,264 -275,27 -371,-246 -689,-239 4,76 5,144 3,214 271,-3 359,247 618,236 -32,88 -69,174 -108,258 -186,-10 -250,-248 -532,-229 -9,61 -19,121 -32,181 245,-17 298,209 474,227 -45,82 -93,161 -144,239 -104,-56 -194,-224 -392,-234 20,-63 38,-126 53,-190 -176,0 -376,-68 -543,-221 54,-310 -427,-625 -427,-852 0,-246 125,-383 125,-715 0,-247 -120,-514 -300,-697 -35,-36 -71,-64 -112,-90 166,205 293,449 293,731 0,313 -146,478 -146,767 0,289 422,539 422,836 0,117 -37,232 -161,457 190,189 437,293 596,293 52,0 80,-15 98,-56 16,-35 31,-71 45,-107 172,7 250,163 345,225 -52,70 -107,138 -164,203 -64,-71 -149,-189 -275,-222 -22,44 -46,87 -71,129 108,29 182,138 239,210 -62,64 -126,125 -192,184 -42,-65 -107,-147 -179,-192 -27,36 -55,72 -84,106 62,42 117,117 152,179 -77,62 -157,121 -239,176 -41,-332 -494,-559 -372,-944 -40,68 -88,153 -88,255 0,279 297,500 321,777 -62,37 -124,71 -188,104 -11,-304 -325,-637 -325,-887 0,-278 365,-559 365,-888 0,-329 -421,-557 -421,-846 0,-289 179,-455 179,-826 0,-271 -129,-546 -328,-721 -35,-31 -70,-56 -111,-77 188,225 297,430 297,740 0,348 -205,541 -205,883 0,341 413,530 413,848 0,318 -385,586 -385,912 0,297 339,594 344,947 -74,32 -150,62 -227,89 43,-356 -339,-724 -339,-1014 0,-318 399,-591 399,-933 0,-343 -406,-502 -406,-853 0,-352 249,-546 249,-935 0,-303 -149,-575 -368,-744 -4,-3 -9,-7 -14,-10 -21,-15 -37,3 -23,21 154,193 237,388 237,677 0,355 -286,644 -286,988 0,406 384,522 384,855 0,333 -412,600 -412,954 0,328 390,692 323,1071 -78,20 -158,38 -238,52 73,-472 -309,-810 -309,-1119 0,-334 426,-632 426,-958 0,-308 -306,-408 -346,-723 -5,-43 -40,-75 -88,-67 -62,11 -142,52 -267,52 -125,0 -205,-41 -267,-52 -47,-8 -82,24 -87,67 -40,315 -346,416 -346,723 0,326 426,624 426,958 0,309 -382,647 -309,1119 -80,-15 -160,-32 -238,-52 -67,-379 323,-743 323,-1071 0,-354 -412,-620 -412,-954 0,-333 384,-449 384,-855 0,-344 -286,-633 -286,-988 0,-289 83,-484 237,-677 15,-18 -2,-37 -23,-21 -5,3 -9,7 -14,10 -218,169 -368,441 -368,744 0,389 249,583 249,935 0,352 -406,511 -406,853 0,343 399,616 399,933 0,291 -382,658 -339,1014 -77,-27 -152,-56 -227,-89 5,-352 344,-649 344,-947 0,-326 -385,-594 -385,-912 0,-318 413,-508 413,-848 0,-341 -205,-535 -205,-883 0,-310 109,-515 297,-740 -42,21 -77,46 -112,77 -199,175 -328,450 -328,721 0,370 179,537 179,826 0,289 -421,517 -421,846 0,329 365,609 365,888 0,250 -314,583 -325,887 -64,-33 -127,-67 -189,-104 24,-277 321,-498 321,-777 0,-102 -48,-187 -88,-255 122,385 -331,612 -372,944 -83,-55 -162,-114 -239,-176 36,-62 90,-137 152,-179 -29,-34 -57,-70 -84,-106 -73,44 -138,127 -179,192 -67,-59 -131,-120 -192,-184 57,-71 131,-180 239,-210 -25,-42 -49,-85 -71,-129 -125,33 -211,152 -275,222 -57,-65 -112,-133 -164,-203 95,-62 174,-219 345,-225 14,36 29,71 45,107 18,41 46,56 98,56 159,0 407,-103 596,-293 -124,-225 -161,-339 -161,-457 0,-297 423,-547 423,-836 0,-289 -146,-454 -146,-767 0,-282 128,-526 293,-731 -41,26 -77,54 -112,90 -181,183 -300,450 -300,697 0,332 124,469 124,715 0,227 -481,543 -426,852 -168,153 -368,221 -543,221 15,65 33,128 53,190 -198,10 -288,179 -392,234 -51,-77 -100,-157 -144,-239 175,-18 228,-244 474,-227 -13,-60 -24,-120 -32,-181 -282,-19 -346,219 -532,229 -40,-84 -76,-170 -108,-258 258,12 346,-239 618,-236 -2,-72 -1,-148 3,-214 -318,-7 -415,266 -690,239 -25,-87 -47,-175 -65,-264 347,43 473,-249 786,-249 14,-84 32,-166 55,-246 -379,-16 -511,313 -881,252 -10,-77 -17,-154 -21,-232 430,48 591,-305 982,-262 37,-94 80,-184 128,-271 -490,-86 -657,324 -1114,261 49,-1761 1492,-3173 3265,-3173 1773,0 3216,1412 3265,3173 -457,63 -623,-347 -1114,-261 48,87 91,177 128,271 391,-43 552,310 982,262 -4,78 -11,155 -21,232l0 0zm-5425 -1518l0 0c-38,-231 -164,-437 -343,-561 -25,-17 -51,-1 -48,28 38,489 -248,913 -599,1286 362,109 671,-357 1140,-195 169,-251 383,-469 631,-643 -240,-98 -532,-76 -780,84zm1561 13l0 0c-5,17 2,28 21,19 54,-24 117,-36 184,-36 124,0 233,46 297,124 29,94 31,230 -1,308 -51,-11 -69,-51 -119,-51 -50,0 -88,35 -173,35 -84,0 -94,-40 -150,-40 -65,0 -77,67 -77,143 0,338 311,803 641,803 330,0 641,-465 641,-803 0,-76 -16,-141 -84,-150 -34,24 -65,46 -143,46 -84,0 -108,-35 -157,-35 -60,0 -54,126 -125,134 -47,-114 -50,-260 -10,-391 64,-79 174,-124 297,-124 67,0 130,12 184,36 20,9 27,-2 22,-19 -67,-222 -321,-393 -624,-393 -303,0 -557,172 -624,393zm895 174l0 0c-6,16 -6,40 2,57 132,-45 248,-47 304,16 30,-27 40,-52 40,-80 0,-44 -45,-74 -135,-74 -73,0 -158,22 -212,82zm-512 63l0 0c6,-69 -118,-145 -242,-145 -90,0 -135,30 -135,74 0,28 10,53 40,80 63,-64 198,-61 337,-10zm1137 -898l0 0c71,-203 162,-379 277,-551 -304,32 -559,144 -745,334l-146 -381 323 -286 -433 -30 -173 -402 -173 402 -433 30 323 286 -146 381c-186,-190 -441,-302 -745,-334 115,172 205,349 277,551 -168,-137 -376,-219 -616,-236 144,185 271,381 365,593 11,24 34,32 58,19 328,-163 697,-255 1088,-255 391,0 760,92 1088,255 25,12 47,4 58,-19 94,-211 221,-408 365,-593 -239,17 -447,99 -615,236zm2278 1401l0 0c-351,-373 -637,-798 -599,-1286 2,-29 -24,-45 -48,-28 -179,124 -304,330 -343,561 -249,-160 -540,-183 -780,-84 248,174 462,392 630,643 470,-163 778,303 1140,195z"/>
 </g>
</svg>
